<?xml version="1.0" encoding="UTF-8" standalone="no"?>
<svg width="132" height="40" xmlns="http://www.w3.org/2000/svg">
   <path d="M7.262 1.5C6.103 1.5 4.6 2.768 3.714 3.612 1.765 5.397 0 8.68 0 11.313c0 3.744 3.085 5.157 3.866 5.157.257 0 .476-.137.476-.498 0-.282-.173-.517-.346-.758-.714-1.127-.944-2.203-.944-3.654 0-3.025 1.352-5.797 2.474-7.066.206-.23.674-.725.813-.725.14 0 .174.116.174.477l-.13 19.798c0 3.095-.866 4.324-.866 5.053 0 .32.134.403.39.403 1.215 0 2.426-1.527 2.769-2.085C9.739 25.52 10 24.041 10 19.773V3.137c0-.45-.122-.645-.537-.922-.606-.398-1.301-.715-2.2-.715zm36.842 0c-.592 0-.846.31-.874 1.266L43.1 6.728l-3.47-.12c-.211-.005-.306.061-.398.246-.295.551-.45.984-.45 1.704 0 .586.266.648.503.648l3.611.104-.01 7.569c0 1.605-1.016 3.688-2.816 5.42 0 0 .155-.523.146-1.071 0-1.554-1.001-2.961-2.336-3.957l-3.258-2.447c.683-.788 1.84-2.353 1.84-3.674 0-1.024-.645-1.454-1.847-1.454-1.697 0-3.665 1.552-3.665 3.853 0 .839.374 1.594.942 2.172a127.313 127.313 0 0 1-2.719 4.834c-.623 1.066-1.676 2.7-2.299 2.7-.46 0-.672-.722-.672-3.495 0-2.304.164-4.808.246-7.212 0-.551-.09-1.06-.807-1.558-.659-.422-1.473-1.01-2.312-1.01-1.864 0-3.134 1.712-4.005 3.386-.901 1.736-1.389 3.199-2.077 5.32l.076-7.303c.024-.52-.108-.722-.525-.9-.542-.229-1.339-.493-2.046-.493-.59 0-.662.254-.662.874l-.08 8.763-.009 3.38c0 3.047.382 3.555 2.193 3.555 1.003 0 1.324-.117 1.344-.95.028-.55.291-1.883.648-3.22 1.043-3.948 2.28-7.07 4.41-9.45.223-.23.395-.148.36.18 0 0-.337 5.342-.337 7.527 0 3.886.599 5.913 2.536 5.913 1.9 0 3.767-2.438 4.786-4.084l3.27-5.459c2.118 1.802 3.596 3.2 3.596 4.9 0 1.056-.668 2.09-1.685 2.09-1.27 0-2.083-1.339-2.941-1.339-.713 0-1.627 1.373-1.627 2.153 0 .736 1.609 1.778 4.496 1.778 4.262 0 6.548-2.92 7.92-6.154.263 3.838 1.795 6.08 4.184 6.08 1.567 0 3.378-1.977 4.201-4.391 0 0 .082.627.707 1.91.862 1.678 2.17 2.447 3.797 2.447 2.022 0 3.752-1.224 4.809-3.278.16 1.557 1.469 3.27 3.574 3.27 1.321 0 2.526-1.01 3.317-2.675 0 0 1.024 2.75 3.987 2.75 1.664 0 3.634-1.54 4.105-2.657l.052 1.626-4.396 4.047c-1.276 1.237-2.634 3.014-2.634 4.982 0 2.503 2.367 3.942 4.45 3.942 2.165 0 3.602-1.37 4.388-2.517.99-1.485 1.41-4.283 1.41-7.019l-.099-4.113c2.963-3.251 5.281-7.745 6.314-10.925l2.249-.06c.435-.029.414.143.353.396-.395 1.668-.74 3.556-.74 5.437 0 3.107.717 4.46 1.747 5.564.896.926 1.787 1.238 2.725 1.238 1.834 0 2.985-1.512 3.35-2.465.861 1.677 2.13 2.458 3.756 2.458 2.022 0 3.752-1.224 4.809-3.278.16 1.556 1.469 3.27 3.574 3.27 1.573 0 2.485-.906 3.202-2.613.015.55.036 1.135.052 1.684.019.284.246.463.45.537.668.253 1.255.38 1.782.38 1.375 0 1.674-.283 1.674-1.18 0-1.48.043-3.818.464-5.695.447-1.869 1.122-3.985 2.053-5.457.084-.152.29-.112.298.072.134 3.15.345 8.482 1.174 9.863.409.658 1.041 1.138 1.988 1.138.443 0 .988-.189 1.127-.307.14-.11.212-.232.203-.458 0-4.027 1.258-7.925 2.518-10.546.034-.078.133-.084.13.018l-.071 2.902c0 4.765.344 7.775 2.728 9.223a3.2 3.2 0 0 0 4.407-1.377c.446-.85.863-2.486.863-3.413 0-.359.004-.943-.585-.943-.323 0-.517.238-.594.597-.188.779-.342 1.446-.633 2.216-.279.735-.694 1.162-1.187 1.162-.579 0-.872-.454-1.04-.735-.739-1.125-.798-3.708-.798-5.864l.178-5.55c0-.458-.192-1.008-.902-1.413-.476-.274-1.68-.79-2.419-.79-.684 0-1.016.388-1.262.956-.464 1.02-2.012 5.023-2.427 8.277-.015.086-.122.104-.13-.005a81.283 81.283 0 0 1-.323-6.945c0-.565-.139-1.374-1.34-1.898-.584-.242-1.067-.39-1.657-.39-.732 0-.89.358-1.152.832-.829 1.53-1.402 3.523-2.261 6.04l.013-5.757c0-.27-.165-.622-.639-.717-1.174-.27-1.718-.392-2.18-.392-.337 0-.522.268-.522.558l-.063 9.815c-.227 1.201-1.148 4.07-2.453 4.07-1.071 0-1.571-1.085-1.571-5.615l.194-7.362c0-.465-.306-.66-.751-.858-.638-.252-1.145-.353-1.792-.353-.813 0-1.092.389-.928 1.322-.893-1.207-1.786-1.874-3.365-1.874-3.168 0-5.556 3.805-5.556 9.334-.031 1.55.344 3.092.344 3.092-.287 1.286-.96 2.335-1.892 2.335-1.174 0-1.923-1.658-1.923-4.53 0-2.883 1.1-6.133 1.1-7.014 0-1.024-.673-1.672-1.862-1.672-.596 0-2.808.5-3.941.665 0 0 .128-.54.118-.963 0-1.01-.474-1.643-1.653-1.643-1.44 0-2.497 1.027-2.497 2.778 0 .786.454 1.513 1.054 1.903-.78 3.243-2.045 5.655-3.911 8.35l.157-10.911c0-.355-.095-.575-.79-.845a4.397 4.397 0 0 0-1.724-.342c-1.095 0-1.023.781-.964 1.366-.502-.887-1.599-1.94-3.292-1.94-4.612 0-6.029 7.022-5.334 12.01 0 .608-.595 2.766-1.938 2.766-1.071 0-1.571-1.084-1.571-5.614l.196-7.362c0-.465-.308-.66-.754-.858-.637-.252-1.142-.353-1.79-.353-.813 0-1.092.389-.927 1.322-.894-1.207-1.789-1.874-3.367-1.874-3.168 0-5.588 3.48-5.588 9.009 0 2.11-1.82 5.33-3.097 5.33-.71 0-1.464-1.299-1.464-4.619.004-2.263.313-9.968.313-9.968l4.455-.072c.213-.002.336-.234.415-.377.204-.414.303-.69.303-1.186 0-.448-.09-.611-.664-.643l-4.44-.267.188-4.13c.013-.26-.144-.43-.43-.558-.859-.335-1.913-.66-2.58-.66zm12.661 11c1.11 0 2.235 1.082 2.235 4.92 0 4.832-1.646 7.08-2.912 7.08C54.9 24.5 54 22.709 54 19.19c0-3.556.88-6.69 2.765-6.69zm43 0c1.11 0 2.235 1.082 2.235 4.92 0 4.832-1.646 7.08-2.912 7.08C97.9 24.5 97 22.709 97 19.19c0-3.556.88-6.69 2.765-6.69zm-26.864 0c1.455 0 2.099 1.594 2.099 4.686 0 4.66-1.303 7.314-2.886 7.314-1.01 0-2.173-1.764-2.112-5.233 0-2.218.68-6.767 2.899-6.767zM76 27.5v1.843c0 6.113-1.752 7.157-3.16 7.157-.533 0-1.84-.375-1.84-1.887 0-2.115 2.377-4.52 3.116-5.263L76 27.5z" fill="#93A2B3" fill-rule="nonzero"></path>
</svg>