<?xml version="1.0" encoding="UTF-8" standalone="no"?>
<svg width="132" height="40" xmlns="http://www.w3.org/2000/svg">
   <path d="M31.045 9h4.038v12.86c0 6.765-4.306 9.14-10.553 9.14C18.306 31 14 28.625 14 21.86V9.514c0-.358.178-.515.535-.515h4.039v12.658c0 4.055 1.784 5.735 5.956 5.735 4.195 0 5.98-1.68 5.98-5.735V9.515c0-.358.178-.515.535-.515zm45.714 3.517v5.422h10.218c.178 0 .245.09.178.269l-1.115 2.778c-.112.246-.268.358-.602.358h-6.002c-1.963 0-2.677.605-2.677 1.927v3.83H90.59c.179 0 .246.09.179.27l-1.16 2.89c-.112.246-.268.358-.603.358H73.86c-1.16 0-1.607-.403-1.607-1.277V10.501c0-1.053.58-1.501 2.097-1.501h16.242c.179 0 .246.09.179.246l-1.16 2.913c-.112.246-.268.358-.603.358H76.76zM63.93 24.637c0 4.324-3.034 5.982-7.295 5.982H45.346c-1.182 0-1.606-.403-1.606-1.277V10.501c0-1.053.557-1.501 2.097-1.501h9.17c4.015 0 7.897.695 7.897 5.489 0 2.06-.736 3.808-2.499 4.727 2.432.65 3.525 2.845 3.525 5.421zm-15.75-6.63h7.161c2.365 0 3.034-.92 3.034-2.801 0-1.882-.67-2.778-3.034-2.778h-7.162v5.578zM59.4 24.233c0-1.994-.691-2.98-3.235-2.98H50.88c-1.963 0-2.7.605-2.7 1.927v4.01h7.987c2.544 0 3.235-.985 3.235-2.957zm59.346 6.385h-4.105c-.335 0-.469-.134-.603-.358l-4.35-7.886h-3.994c-1.963 0-2.7.605-2.7 1.926v6.318H99.07c-.357 0-.535-.18-.535-.515V10.5c0-1.053.58-1.501 2.097-1.501h9.214c5.377 0 8.612 1.411 8.612 6.654 0 4.055-1.941 5.645-4.35 6.273l4.84 8.311c.09.135.09.381-.2.381zm-4.82-14.876c0-2.195-.602-3.27-3.413-3.27h-7.518v6.541h7.518c2.811 0 3.414-1.053 3.414-3.27z" fill="#93A2B3" fill-rule="nonzero"></path>
</svg>