<?xml version="1.0" encoding="UTF-8" standalone="no"?>
<svg width="132" height="40" xmlns="http://www.w3.org/2000/svg">
   <g fill="#93A2B3" fill-rule="nonzero">
      <path d="M18.106 9.105c-1.146.384-2.394 2.07-2.037 4.63.163 1.157.757 2.72.961 3.418.362 1.223.79 3.138.223 7.12-.718 4.987-2.431 8.434-6.288 8.355-2.572 0-4.934-2.147-5.214-7.665-.289-5.212.075-7.429.857-12.024.355-2.077.496-3.836-1.072-3.528-1.997.455-2.57 1.301-3.214 3.68C1.109 17.534.9 20.673 1.036 23.816c.29 6.665 3.071 11.033 9.36 11.182 7.283.157 10.213-7.43 10.494-13.713.217-4.6.144-7.813-.498-10.265-.499-1.608-1.001-2.302-2.286-1.915zM126.935 18c-7.219 0-8.75 10.897-9.902 10.897-1.92 0-1.305-8.732-2.692-8.732-1.229-.003-1.83 1.472-1.996 2.162-.952 3.974-3.837 9.818-8.141 9.818-.996 0-2.762-.389-2.762-1.393 0-1.083 6.761-1.232 6.761-6.413 0-1.929-1.765-4.638-4.377-4.638-3.455 0-6.826 3.79-6.826 9.043 0 4.71 2.909 6.256 5.825 6.256 5.069 0 8.14-4.175 9.752-7.65.77 2.32 1.224 7.65 3.151 7.65.764 0 1.306-.387 2.228-2.469 2.298-5.18 4.526-11.132 7.599-11.132 1.149 0 .461 2.092 3.225 2.092 1.302 0 2.22-1.082 2.22-2.323 0-1.781-1.61-3.168-4.065-3.168zm-24.112 4.796c1.615 0 2.079 1.922 1.691 3.086-.385 1.157-1.765 2.476-3.913 2.86-.462-1.161-.693-5.946 2.222-5.946zM96.574 16.853c-1.727 0-2.999 1.9-2.999 4.153 0 2.045.525 2.187.525 3.598 0 1.898-1.047 4.368-2.323 4.368-2.984 0-3.737-11.138-5.533-11.138-1.047 0-1.572 1.195-1.87 2.044-1.654 4.443-3.888 9.307-8.155 9.307-.829 0-1.795-.357-2.321-.847 2.99-1.761 5.013-3.599 5.013-5.85 0-1.908-1.348-4.798-3.667-4.798-2.918 0-6.287 4.162-6.287 9.094 0 .92.153 1.553.304 2.042-.228.287-1.13.64-1.875.64-2.02 0-4.161-2.024-4.417-3.213 1.509-3.066 4.519-6.62 3.967-15.135-.207-3.24-2.001-5.24-4.244-5.112-3.06.178-5.853 6.606-5.407 13.438.086 1.337.705 5.006 1.574 6.82-1.519 2.292-3.447 2.634-4.568 2.634-1.577 0-3.968-.846-3.966-4.296 1.127-2.895.378-6.205-1.196-6.205-2.243 0-2.992 3.73-3.067 6.34-.746 1.555-1.572 2.822-2.697 2.822-3.365 0-3.661-9.87-6.135-9.87-2.02 0-5.491 6.273-6.543 6.273-.595 0-1.122-1.776-1.5-3.52-.104-.488-.204-1.079-.54-1.108-.668-.058-1.499.48-1.806 1.238-.31.748-.866 3.098-1.47 5.242-.362 1.235-1.254 3.845-1.36 4.821-.077.705.238 1.231.986 1.305 1.86.18 8.716-7.762 10.886-7.762 2.773 0 3.44 7.822 6.588 7.822 1.87 0 3.59-4.506 4.715-4.506 1.27 0 1.868 4.506 5.46 4.506 4.494 0 5.987-2.75 7.336-2.75 1.118 0 2.318 2.68 5.086 2.68 1.72 0 3.223-.494 5.015-1.625C71.129 31.436 72.397 32 73.601 32c7.4 0 9.496-6.273 11-6.273 1.345 0 1.046 6.202 4.87 6.202 5.081 0 8.529-8.388 8.529-12.9-.002-1.195-.38-2.176-1.426-2.176zm-34.579 5.993c-.446.03-.925-.437-1.119-3.466-.304-4.643.386-9.059 1.875-9.143 1.124-.073 1.63.816 1.76 2.787.287 4.365-1.69 9.775-2.516 9.822zm10.855 4.158c-.305-.36-.97-1.198-.97-2.967 0-2.255 1.565-2.958 2.245-2.958.816 0 1.495.988 1.495 2.181 0 1.41-.604 3.106-2.77 3.744z"></path>
   </g>
</svg>